<svg aria-hidden="true" style="position: absolute; width: 0; height: 0; overflow: hidden;" version="1.1" xmlns="http://www.w3.org/2000/svg" xmlns:xlink="http://www.w3.org/1999/xlink">
<defs>
<symbol id="icon-heart" viewBox="0 0 32 32">
<path d="M8.667 1.101c-1.618 0.128-3.092 0.65-4.357 1.469l0.037-0.022c-1.585 1.023-2.925 2.675-3.634 4.483l-0.179 0.454v7.28l0.165 0.471c0.385 1.049 0.89 1.956 1.512 2.77l-0.018-0.025c0.511 0.67 1.596 1.779 2.5 2.554 0.436 0.374 0.796 0.662 3.921 3.151 2.356 1.876 3.998 3.306 5.76 5.013 0.621 0.602 1.076 1.001 1.216 1.065 0.477 0.215 0.857 0.086 1.47-0.499 1.901-1.814 3.915-3.511 7.735-6.518 2.547-2.004 3.639-2.967 4.509-3.98 0.98-1.14 1.577-2.161 2.035-3.482l0.128-0.37v-3.689c0-4.208 0.043-3.79-0.508-4.918-1.103-2.257-3.065-3.984-5.407-4.762-0.784-0.26-1.243-0.354-2.122-0.435-1.975-0.181-4.022 0.361-5.783 1.532-0.503 0.335-1.488 1.167-1.584 1.339-0.042 0.074-0.118 0.021-0.482-0.33-0.643-0.627-1.385-1.158-2.198-1.567l-0.051-0.023c-1.554-0.78-3.040-1.085-4.666-0.96zM10.347 3.277c1.756 0.265 3.437 1.301 4.587 2.827 0.267 0.353 0.407 0.491 0.61 0.591 0.56 0.281 0.993 0.11 1.523-0.597 1.084-1.445 2.557-2.4 4.277-2.771 0.627-0.135 2.082-0.137 2.709-0.002 3.093 0.662 5.365 3.209 5.764 6.46 0.079 0.641 0.035 2.257-0.081 3.055-0.32 2.18-1.056 3.613-2.695 5.242-0.75 0.745-1.637 1.49-3.841 3.227-3.019 2.378-4.257 3.402-5.946 4.919-0.548 0.492-1.053 0.94-1.122 0.995l-0.126 0.101-0.789-0.748c-1.883-1.78-3.312-2.994-6.417-5.452-2.909-2.303-3.861-3.141-4.665-4.11-1.346-1.623-1.897-3.221-1.985-5.764-0.045-1.3 0.063-2.107 0.427-3.169 0.682-1.991 2.323-3.71 4.227-4.427 0.746-0.285 1.609-0.451 2.51-0.451 0.364 0 0.722 0.027 1.072 0.079l-0.040-0.005z"></path>
</symbol>
<symbol id="icon-el" viewBox="0 0 32 32">
<path  d="M5.333 8.667v-8.667h-2.133v8.667c-0.92 0.227-1.733 0.76-2.307 1.52-0.587 0.747-0.893 1.667-0.893 2.6 0 0.947 0.307 1.867 0.893 2.613 0.573 0.76 1.387 1.293 2.307 1.52v15.080h2.133v-15.080c0.907-0.227 1.72-0.76 2.293-1.52 0.587-0.747 0.907-1.667 0.907-2.613 0-0.933-0.32-1.853-0.907-2.6-0.573-0.76-1.387-1.293-2.293-1.52zM4.267 14.933c-0.427 0-0.84-0.133-1.187-0.36-0.36-0.24-0.627-0.573-0.787-0.96-0.16-0.4-0.213-0.827-0.12-1.24 0.080-0.413 0.28-0.787 0.573-1.093 0.307-0.293 0.68-0.493 1.093-0.573 0.413-0.093 0.853-0.040 1.24 0.12s0.72 0.427 0.96 0.787c0.227 0.347 0.36 0.76 0.36 1.173-0.013 0.573-0.227 1.12-0.627 1.52s-0.947 0.613-1.507 0.627zM17.067 18.267v-18.267h-2.133v18.267c-0.92 0.227-1.733 0.76-2.307 1.52-0.587 0.747-0.907 1.667-0.907 2.6 0 0.947 0.32 1.867 0.907 2.613 0.573 0.76 1.387 1.293 2.307 1.52v5.48h2.133v-5.48c0.907-0.227 1.72-0.76 2.293-1.52 0.587-0.747 0.907-1.667 0.907-2.613 0-0.933-0.32-1.853-0.907-2.6-0.573-0.76-1.387-1.293-2.293-1.52zM16 24.533c-0.427 0-0.84-0.133-1.187-0.36-0.36-0.24-0.627-0.573-0.787-0.96-0.16-0.4-0.213-0.827-0.12-1.24 0.080-0.413 0.28-0.787 0.573-1.093 0.307-0.293 0.68-0.493 1.093-0.573 0.413-0.093 0.84-0.040 1.24 0.12 0.387 0.16 0.72 0.427 0.96 0.787 0.227 0.347 0.36 0.76 0.36 1.173-0.013 0.573-0.227 1.12-0.627 1.52s-0.947 0.613-1.507 0.627zM28.8 4.4v-4.4h-2.133v4.4c-0.92 0.227-1.733 0.76-2.307 1.52-0.587 0.747-0.893 1.667-0.893 2.613 0 0.933 0.307 1.853 0.893 2.6 0.573 0.76 1.387 1.293 2.307 1.52v19.347h2.133v-19.347c0.907-0.227 1.72-0.76 2.293-1.52 0.587-0.747 0.907-1.667 0.907-2.6 0-0.947-0.32-1.867-0.907-2.613-0.573-0.76-1.387-1.293-2.293-1.52zM27.72 10.667c-0.413 0-0.827-0.133-1.173-0.36-0.36-0.24-0.627-0.573-0.787-0.96-0.16-0.4-0.213-0.827-0.12-1.24 0.080-0.413 0.28-0.787 0.573-1.093 0.307-0.293 0.68-0.493 1.093-0.573 0.413-0.093 0.84-0.040 1.24 0.12 0.387 0.16 0.72 0.427 0.96 0.787 0.227 0.347 0.347 0.76 0.347 1.187 0 0.56-0.213 1.107-0.613 1.507s-0.947 0.613-1.52 0.627z"></path>
</symbol>
<symbol id="icon-logo" viewBox="0 0 43 32">
<path fill="#7a69c2" style="fill: var(--color5, #7a69c2)" d="M26.435 10.435c0 5.763-4.672 10.435-10.435 10.435s-10.435-4.672-10.435-10.435c0-5.763 4.672-10.435 10.435-10.435s10.435 4.672 10.435 10.435z"></path>
<path fill="#d7d5e6" style="fill: var(--color6, #d7d5e6)" d="M37.565 10.435c0 5.763-4.672 10.435-10.435 10.435s-10.435-4.672-10.435-10.435c0-5.763 4.672-10.435 10.435-10.435s10.435 4.672 10.435 10.435z"></path>
<path fill="#988bd4" style="fill: var(--color7, #988bd4)" d="M21.565 1.391c2.926 1.848 4.87 5.112 4.87 8.828s-1.943 6.98-4.87 8.828c-2.926-1.849-4.87-5.111-4.87-8.828s1.943-6.98 4.87-8.828z"></path>
</symbol>
<symbol id="icon-arrow-link" viewBox="0 0 46 32">
<path  fill="red" d="M39.827 15.998l-11.89-11.89c-0.937-0.961-0.937-2.45 0-3.411 0.961-0.937 2.45-0.937 3.411 0l13.572 13.596c0.961 0.937 0.961 2.45 0 3.387l-13.572 13.596c-0.961 0.961-2.45 0.961-3.411 0-0.937-0.961-0.937-2.45 0-3.387l11.89-11.89z"></path>
<path d="M37.425 13.596l-9.488-9.488c-0.937-0.961-0.937-2.45 0-3.411 0.961-0.937 2.45-0.937 3.411 0l13.572 13.596c0.961 0.937 0.961 2.45 0 3.387l-13.572 13.596c-0.961 0.961-2.45 0.961-3.411 0-0.937-0.961-0.937-2.45 0-3.387l9.488-9.488h-37.425v-4.804h37.425z"></path>
</symbol>
<symbol id="icon-star" viewBox="0 0 32 32">
<path  d="M12.196 7.2c1.689-3.022 2.524-4.533 3.804-4.533 1.262 0 2.098 1.511 3.787 4.533l0.444 0.782c0.48 0.871 0.711 1.298 1.084 1.582s0.836 0.391 1.778 0.604l0.853 0.178c3.271 0.747 4.907 1.12 5.298 2.382 0.391 1.244-0.729 2.56-2.951 5.173l-0.587 0.676c-0.64 0.747-0.96 1.102-1.102 1.564s-0.089 0.96 0 1.956l0.089 0.907c0.338 3.484 0.516 5.227-0.516 6.009-1.013 0.764-2.542 0.053-5.618-1.351l-0.8-0.373c-0.871-0.391-1.298-0.604-1.76-0.604-0.48 0-0.907 0.213-1.778 0.604l-0.8 0.373c-3.076 1.404-4.604 2.116-5.618 1.351-1.031-0.782-0.853-2.524-0.516-6.009l0.089-0.907c0.089-0.996 0.142-1.493 0-1.956s-0.462-0.818-1.102-1.564l-0.569-0.676c-2.24-2.613-3.36-3.929-2.969-5.173 0.391-1.262 2.027-1.636 5.298-2.382l0.853-0.178c0.942-0.213 1.404-0.32 1.778-0.604s0.604-0.711 1.084-1.582l0.444-0.782z"></path>
</symbol>
<symbol id="icon-globe" viewBox="0 0 32 32">
<path d="M22.976 19.2c0.112-1.072 0.224-2.112 0.224-3.2 0-1.104-0.112-2.144-0.224-3.2h5.408c0.256 1.024 0.416 2.096 0.416 3.2 0 1.088-0.16 2.16-0.416 3.2h-5.408zM20.144 28.096c0.944-1.776 1.696-3.696 2.208-5.696h4.72c-1.552 2.656-4.016 4.688-6.928 5.696zM19.744 19.2h-7.488c-0.16-1.072-0.256-2.112-0.256-3.2 0-1.104 0.096-2.176 0.256-3.2h7.488c0.144 1.024 0.256 2.096 0.256 3.2 0 1.088-0.112 2.128-0.256 3.2zM16 28.72c-1.328-1.92-2.4-4.032-3.072-6.32h6.128c-0.656 2.288-1.728 4.4-3.056 6.32zM9.6 9.6h-4.688c1.536-2.688 4-4.704 6.928-5.712-0.96 1.776-1.696 3.712-2.24 5.712zM4.912 22.4h4.688c0.544 2 1.28 3.92 2.24 5.696-2.928-1.008-5.376-3.040-6.928-5.696zM3.616 19.2c-0.272-1.040-0.416-2.112-0.416-3.2 0-1.104 0.144-2.176 0.416-3.2h5.408c-0.128 1.056-0.224 2.096-0.224 3.2 0 1.088 0.096 2.128 0.224 3.2h-5.408zM16 3.232c1.328 1.92 2.4 4.064 3.056 6.368h-6.128c0.672-2.304 1.744-4.448 3.072-6.368zM27.072 9.6h-4.72c-0.512-1.984-1.248-3.904-2.208-5.712 2.944 1.008 5.392 3.040 6.928 5.712zM16 0c-8.864 0-16 7.2-16 16 0 4.24 1.68 8.304 4.672 11.312 1.488 1.472 3.248 2.656 5.2 3.456 1.936 0.816 4.016 1.232 6.128 1.232 4.24 0 8.304-1.696 11.312-4.688 2.992-3.008 4.688-7.072 4.688-11.312 0-2.112-0.416-4.192-1.232-6.128-0.8-1.952-1.984-3.712-3.456-5.2-1.488-1.472-3.248-2.656-5.2-3.456-1.936-0.816-4.016-1.216-6.112-1.216z"></path>
</symbol>
<symbol id="icon-arrow-right" viewBox="0 0 65 32">
<path d="M56.639 13.595l-9.488-9.488c-0.937-0.961-0.937-2.45 0-3.411 0.961-0.937 2.45-0.937 3.411 0l13.571 13.595c0.961 0.961 0.961 2.45 0 3.387l-13.571 13.595c-0.961 0.961-2.45 0.961-3.411 0-0.937-0.961-0.937-2.45 0-3.387l9.488-9.488h-56.639v-4.804h56.639z"></path>
</symbol>
<symbol id="icon-arrow-left" viewBox="0 0 65 32">
<path d="M8.191 13.595l9.488-9.488c0.961-0.961 0.961-2.45 0-3.411-0.937-0.937-2.45-0.937-3.387 0l-13.595 13.595c-0.937 0.961-0.937 2.45 0 3.387l13.595 13.595c0.937 0.961 2.45 0.961 3.387 0 0.961-0.961 0.961-2.45 0-3.387l-9.488-9.488h56.663v-4.804h-56.663z"></path>
</symbol>
<symbol id="icon-time" viewBox="0 0 32 32">
<path d="M16 29.33c-7.37 0-13.34-5.97-13.34-13.33 0-7.37 5.97-13.34 13.34-13.34 7.36 0 13.33 5.97 13.33 13.34 0 7.36-5.97 13.33-13.33 13.33zM16 26.66c2.82 0 5.54-1.12 7.54-3.12s3.12-4.72 3.12-7.54c0-2.83-1.12-5.55-3.12-7.55s-4.72-3.12-7.54-3.12c-2.83 0-5.55 1.12-7.55 3.12s-3.12 4.72-3.12 7.55c0 2.82 1.12 5.54 3.12 7.54s4.72 3.12 7.55 3.12zM17.33 16h5.33v2.66h-8v-9.33h2.67v6.67z"></path>
</symbol>
<symbol id="icon-pen" viewBox="0 0 30 32">
<path d="M6.069 25.89h3.774v-1.358h-2.342l0.285-5.817 7.508-7.501q2.749-0.855 3.808 0.122 0.048 0.041 0.088 0.081 0.014 0.020 0.027 0.034 1.018 1.134 0.204 3.903l-6.876 7.189-2.905-2.905c-0.265-0.272-0.692-0.272-0.957 0-0.272 0.272-0.272 0.692 0 0.957l3.883 3.89 7.935-8.295q0.244-0.231 0.475-0.468 1.12-1.161 1.962-2.586 1.541-2.6 0.916-4.467-0.278-0.828-0.984-1.514-0.828-0.808-1.778-1.011-1.778-0.387-4.005 1.303-0.787 0.604-1.473 1.303-0.645 0.665-1.201 1.419l-7.949 7.956-0.394 7.766zM16.78 9.503q1.84-0.204 2.953 0.597 0.238 0.17 0.441 0.387 0.156 0.163 0.292 0.353 0.72 1.011 0.665 2.579 0.339-0.475 0.638-0.978 1.276-2.152 0.699-3.53-0.177-0.428-0.543-0.787-0.441-0.428-0.964-0.577-1.283-0.367-3.055 0.984-0.597 0.448-1.127 0.971z"></path>
</symbol>
<symbol id="icon-ctrl" viewBox="0 0 32 32">
<path d="M23 14c-0.278 0-0.555-0.116-0.753-0.341l-6.247-7.14-6.247 7.14c-0.364 0.416-0.995 0.458-1.411 0.094s-0.458-0.995-0.094-1.411l7-8c0.19-0.217 0.464-0.341 0.753-0.341s0.563 0.125 0.753 0.341l7 8c0.364 0.416 0.322 1.047-0.094 1.411-0.19 0.166-0.424 0.247-0.658 0.247z"></path>
</symbol>
</defs>
</svg>
